<?xml version="1.0" encoding="UTF-8" standalone="no"?>
<!-- Created with Inkscape (http://www.inkscape.org/) -->

<svg
   width="48"
   height="48"
   viewBox="0 0 12.7 12.7"
   version="1.1"
   id="svg1"
   inkscape:version="1.3 (0e150ed, 2023-07-21)"
   sodipodi:docname="icon.svg"
   inkscape:export-filename="../chrome-extension/icon.png"
   inkscape:export-xdpi="96"
   inkscape:export-ydpi="96"
   xmlns:inkscape="http://www.inkscape.org/namespaces/inkscape"
   xmlns:sodipodi="http://sodipodi.sourceforge.net/DTD/sodipodi-0.dtd"
   xmlns="http://www.w3.org/2000/svg"
   xmlns:svg="http://www.w3.org/2000/svg">
  <sodipodi:namedview
     id="namedview1"
     pagecolor="#ffffff"
     bordercolor="#000000"
     borderopacity="0.25"
     inkscape:showpageshadow="2"
     inkscape:pageopacity="0.0"
     inkscape:pagecheckerboard="0"
     inkscape:deskcolor="#d1d1d1"
     inkscape:document-units="mm"
     inkscape:zoom="2.3786088"
     inkscape:cx="-67.476417"
     inkscape:cy="33.212691"
     inkscape:window-width="1504"
     inkscape:window-height="449"
     inkscape:window-x="336"
     inkscape:window-y="379"
     inkscape:window-maximized="0"
     inkscape:current-layer="g6" />
  <defs
     id="defs1" />
  <g
     inkscape:label="Camada 1"
     inkscape:groupmode="layer"
     id="layer1">
    <g
       id="g6"
       transform="matrix(0.32402738,0,0,0.32402738,-12.162605,-13.338062)">
      <g
         id="g1"
         inkscape:export-filename="../chrome-extension/96.png"
         inkscape:export-xdpi="192.12073"
         inkscape:export-ydpi="192.12073">
        <rect
           style="fill:#ffffff;fill-opacity:0.944805;stroke:#1a1a1a;stroke-width:0.816546"
           id="rect1"
           width="38.353043"
           height="38.838524"
           x="37.778473"
           y="41.40612"
           ry="5.6604648" />
        <path
           opacity="0.5"
           d="m 40.367212,68.192543 c 0,-4.747352 0,-7.121027 1.474827,-8.595889 1.474828,-1.474861 3.848521,-1.474861 8.595922,-1.474861 h 13.427667 c 4.747351,0 7.121027,0 8.595888,1.474861 1.474862,1.474862 1.474862,3.848537 1.474862,8.595889 0,4.747351 0,7.121027 -1.474862,8.595888 -1.474861,1.474862 -3.848537,1.474862 -8.595888,1.474862 H 50.437961 c -4.747401,0 -7.121094,0 -8.595922,-1.474862 -1.474827,-1.474861 -1.474827,-3.848537 -1.474827,-8.595888 z"
           fill="#1c274c"
           id="path1"
           style="fill:#2c5aa0;fill-opacity:0.944805;stroke-width:1.67846" />
        <path
           d="m 50.437961,69.871001 c 0.926979,0 1.678459,-0.751446 1.678459,-1.678458 0,-0.927013 -0.75148,-1.678458 -1.678459,-1.678458 -0.926979,0 -1.678458,0.751445 -1.678458,1.678458 0,0.927012 0.751479,1.678458 1.678458,1.678458 z"
           fill="#1c274c"
           id="path2"
           style="stroke-width:1.67846" />
        <path
           d="m 57.151795,69.871001 c 0.927012,0 1.678458,-0.751446 1.678458,-1.678458 0,-0.927013 -0.751446,-1.678458 -1.678458,-1.678458 -0.927013,0 -1.678459,0.751445 -1.678459,1.678458 0,0.927012 0.751446,1.678458 1.678459,1.678458 z"
           fill="#1c274c"
           id="path3"
           style="stroke-width:1.67846" />
        <path
           d="m 65.544086,68.192543 c 0,0.927012 -0.751446,1.678458 -1.678458,1.678458 -0.927013,0 -1.678458,-0.751446 -1.678458,-1.678458 0,-0.927013 0.751445,-1.678458 1.678458,-1.678458 0.927012,0 1.678458,0.751445 1.678458,1.678458 z"
           fill="#1c274c"
           id="path4"
           style="stroke-width:1.67846" />
        <path
           d="m 48.339889,54.764876 c 0,-4.866673 3.945233,-8.811906 8.811906,-8.811906 4.104334,0 7.556083,2.807088 8.534289,6.60799 0.173384,0.673297 0.859706,1.078628 1.532936,0.905344 0.673397,-0.173301 1.078577,-0.859589 0.90536,-1.532886 -1.257669,-4.886261 -5.691652,-8.498135 -10.972585,-8.498135 -6.257159,0 -11.329594,5.072435 -11.329594,11.329593 v 3.448561 c 0.732664,-0.05472 1.565397,-0.07671 2.517688,-0.0856 z"
           fill="#1c274c"
           id="path5"
           style="fill:#bfbfbf;fill-opacity:1;stroke-width:1.67846" />
      </g>
    </g>
  </g>
</svg>
