<?xml version="1.0" encoding="UTF-8" standalone="no"?>
<!-- Created with Inkscape (http://www.inkscape.org/) -->

<svg
   width="143.9055mm"
   height="39.393272mm"
   viewBox="0 0 143.9055 39.393272"
   version="1.1"
   id="svg1"
   xml:space="preserve"
   xmlns:inkscape="http://www.inkscape.org/namespaces/inkscape"
   xmlns:sodipodi="http://sodipodi.sourceforge.net/DTD/sodipodi-0.dtd"
   xmlns="http://www.w3.org/2000/svg"
   xmlns:svg="http://www.w3.org/2000/svg"><sodipodi:namedview
     id="namedview1"
     pagecolor="#ffffff"
     bordercolor="#000000"
     borderopacity="0.25"
     inkscape:showpageshadow="2"
     inkscape:pageopacity="0.0"
     inkscape:pagecheckerboard="0"
     inkscape:deskcolor="#d1d1d1"
     inkscape:document-units="mm" /><defs
     id="defs1" /><g
     inkscape:label="Camada 1"
     inkscape:groupmode="layer"
     id="layer1"
     transform="translate(-34.62901,-35.72549)"><g
       id="g4"><g
         id="g7"
         transform="translate(-3.1145657,-4.4493795)"><text
           xml:space="preserve"
           style="font-size:23.2833px;fill:#2c5aa0;stroke-width:0.264583"
           x="74.282913"
           y="58.330597"
           id="text1"><tspan
             sodipodi:role="line"
             id="tspan1"
             style="font-style:normal;font-variant:normal;font-weight:bold;font-stretch:normal;font-size:23.2833px;font-family:'Avenir Next';-inkscape-font-specification:'Avenir Next Bold';fill:#2c5aa0;stroke-width:0.264583"
             x="74.282913"
             y="58.330597">Password</tspan></text><g
           id="g6"
           transform="matrix(1.0198815,0,0,1.0198815,-3.3386667,-3.7738599)"><path
             opacity="0.5"
             d="m 40.28139,67.849256 c 0,-4.747352 0,-7.121027 1.474827,-8.595889 1.474828,-1.474861 3.848521,-1.474861 8.595922,-1.474861 h 13.427667 c 4.747351,0 7.121027,0 8.595888,1.474861 1.474862,1.474862 1.474862,3.848537 1.474862,8.595889 0,4.747351 0,7.121027 -1.474862,8.595888 -1.474861,1.474862 -3.848537,1.474862 -8.595888,1.474862 H 50.352139 c -4.747401,0 -7.121094,0 -8.595922,-1.474862 C 40.28139,74.970283 40.28139,72.596607 40.28139,67.849256 Z"
             fill="#1c274c"
             id="path1"
             style="fill:#2c5aa0;stroke-width:1.67846" /><path
             d="m 50.352139,69.527714 c 0.926979,0 1.678459,-0.751446 1.678459,-1.678458 0,-0.927013 -0.75148,-1.678458 -1.678459,-1.678458 -0.926979,0 -1.678458,0.751445 -1.678458,1.678458 0,0.927012 0.751479,1.678458 1.678458,1.678458 z"
             fill="#1c274c"
             id="path2"
             style="stroke-width:1.67846" /><path
             d="m 57.065973,69.527714 c 0.927012,0 1.678458,-0.751446 1.678458,-1.678458 0,-0.927013 -0.751446,-1.678458 -1.678458,-1.678458 -0.927013,0 -1.678459,0.751445 -1.678459,1.678458 0,0.927012 0.751446,1.678458 1.678459,1.678458 z"
             fill="#1c274c"
             id="path3"
             style="stroke-width:1.67846" /><path
             d="m 65.458264,67.849256 c 0,0.927012 -0.751446,1.678458 -1.678458,1.678458 -0.927013,0 -1.678458,-0.751446 -1.678458,-1.678458 0,-0.927013 0.751445,-1.678458 1.678458,-1.678458 0.927012,0 1.678458,0.751445 1.678458,1.678458 z"
             fill="#1c274c"
             id="path4"
             style="stroke-width:1.67846" /><path
             d="m 48.254067,54.421589 c 0,-4.866673 3.945233,-8.811906 8.811906,-8.811906 4.104334,0 7.556083,2.807088 8.534289,6.60799 0.173384,0.673297 0.859706,1.078628 1.532936,0.905344 0.673397,-0.173301 1.078577,-0.859589 0.90536,-1.532886 -1.257669,-4.886261 -5.691652,-8.498135 -10.972585,-8.498135 -6.257159,0 -11.329594,5.072435 -11.329594,11.329593 v 3.448561 c 0.732664,-0.05472 1.565397,-0.07671 2.517688,-0.0856 z"
             fill="#1c274c"
             id="path5"
             style="fill:#cccccc;stroke-width:1.67846" /></g><g
           id="g5"
           transform="translate(1.2584746,-24.225636)"><text
             xml:space="preserve"
             style="font-style:normal;font-variant:normal;font-weight:normal;font-stretch:normal;font-size:19.7556px;font-family:'Avenir Next';-inkscape-font-specification:'Avenir Next';fill:#5f8dd3;stroke-width:0.264583"
             x="73.474854"
             y="97.405411"
             id="text2"><tspan
               sodipodi:role="line"
               id="tspan2"
               style="font-style:normal;font-variant:normal;font-weight:bold;font-stretch:normal;font-size:19.7556px;font-family:'Avenir Next';-inkscape-font-specification:'Avenir Next Bold';fill:#5f8dd3;stroke-width:0.264583"
               x="73.474854"
               y="97.405411">creation</tspan></text><text
             xml:space="preserve"
             style="font-style:normal;font-variant:normal;font-weight:normal;font-stretch:normal;font-size:4.23333px;font-family:'Avenir Next';-inkscape-font-specification:'Avenir Next';fill:#ffffff;stroke-width:0.264583"
             x="136.71126"
             y="102.77778"
             id="text4"><tspan
               sodipodi:role="line"
               id="tspan4"
               style="fill:#ffffff;stroke-width:0.264583"
               x="136.71126"
               y="102.77778">create safer passwords</tspan></text><text
             xml:space="preserve"
             style="font-style:normal;font-variant:normal;font-weight:bold;font-stretch:normal;font-size:12.7px;font-family:'Avenir Next';-inkscape-font-specification:'Avenir Next Bold';fill:#2c5aa0;stroke-width:0.264583"
             x="150.79253"
             y="97.391106"
             id="text5"><tspan
               sodipodi:role="line"
               id="tspan5"
               style="font-size:12.7px;stroke-width:0.264583"
               x="150.79253"
               y="97.391106">.com</tspan></text></g></g></g></g></svg>
