<?xml version="1.0" encoding="UTF-8" standalone="no"?>
<svg
   viewBox="0 0 513 311"
   version="1.1"
   id="svg25"
   sodipodi:docname="monitor.svg"
   inkscape:version="1.3 (0e150ed, 2023-07-21)"
   xml:space="preserve"
   xmlns:inkscape="http://www.inkscape.org/namespaces/inkscape"
   xmlns:sodipodi="http://sodipodi.sourceforge.net/DTD/sodipodi-0.dtd"
   xmlns="http://www.w3.org/2000/svg"
   xmlns:svg="http://www.w3.org/2000/svg"><sodipodi:namedview
     id="namedview25"
     pagecolor="#ffffff"
     bordercolor="#000000"
     borderopacity="0.25"
     inkscape:showpageshadow="2"
     inkscape:pageopacity="0.0"
     inkscape:pagecheckerboard="0"
     inkscape:deskcolor="#d1d1d1"
     inkscape:zoom="0.75884244"
     inkscape:cx="96.858051"
     inkscape:cy="115.9661"
     inkscape:window-width="1504"
     inkscape:window-height="449"
     inkscape:window-x="203"
     inkscape:window-y="462"
     inkscape:window-maximized="0"
     inkscape:current-layer="svg25" /><defs
     id="defs1"><style
       id="style1">.a{fill:#fff;stroke:#404040;stroke-width:3px;}.b{fill:#404040;}.c{fill:#e1e1e1;}.d{fill:#68caad;}.e{fill:#e18888;}.f{stroke:none;}.g{fill:none;}</style></defs><g
     class="a"
     id="g2"><rect
       class="f"
       width="513"
       height="273"
       rx="10"
       id="rect1"
       x="0"
       y="0" /><rect
       class="g"
       x="1.5"
       y="1.5"
       width="510"
       height="270"
       rx="8.5"
       id="rect2" /></g><rect
     class="b"
     width="127"
     height="30"
     id="rect3"
     x="193"
     y="273" /><rect
     class="b"
     width="223"
     height="8"
     id="rect4"
     x="145"
     y="303" /><rect
     class="b"
     width="34"
     height="242"
     id="rect5"
     x="13"
     y="17" /><rect
     class="c"
     width="182"
     height="21"
     rx="10.5"
     id="rect7"
     x="54"
     y="222" /><rect
     class="c"
     width="136"
     height="11"
     rx="5.5"
     id="rect8"
     x="59"
     y="33" /><rect
     class="c"
     width="189.27542"
     height="11"
     rx="24.209648"
     id="rect20"
     x="59"
     y="64"
     style="stroke-width:2.09804" /><rect
     class="c"
     width="74"
     height="11"
     rx="5.5"
     id="rect21"
     x="59"
     y="95" /><rect
     class="c"
     width="188.97458"
     height="11"
     rx="10.189806"
     id="rect22"
     x="59"
     y="126"
     style="stroke-width:1.36114" /><rect
     class="c"
     width="68"
     height="11"
     rx="5.5"
     id="rect23"
     x="59"
     y="157" /><rect
     class="c"
     width="146"
     height="11"
     rx="5.5"
     id="rect24"
     x="59"
     y="188" /><rect
     class="c"
     width="23"
     height="21"
     rx="10.5"
     id="rect25"
     x="241"
     y="222" /><rect
     class="c"
     width="68"
     height="11"
     rx="5.5"
     id="rect23-8"
     x="150.74577"
     y="157"
     style="fill:#e1e1e1" /><path
     opacity="0.5"
     d="m 291.96116,172.72907 c 0,-28.17733 0,-42.266 8.75366,-51.01987 8.75367,-8.75386 22.84244,-8.75386 51.02007,-8.75386 h 79.69832 c 28.17734,0 42.26601,0 51.01987,8.75386 8.75386,8.75387 8.75386,22.84254 8.75386,51.01987 0,28.17734 0,42.26601 -8.75386,51.01988 -8.75386,8.75386 -22.84253,8.75386 -51.01987,8.75386 h -79.69832 c -28.17763,0 -42.2664,0 -51.02007,-8.75386 -8.75366,-8.75387 -8.75366,-22.84254 -8.75366,-51.01988 z"
     fill="#1c274c"
     id="path1"
     style="stroke-width:9.96229;fill:#ffcc00;stroke:#806600" /><path
     d="m 351.73489,182.69136 c 5.50198,0 9.96229,-4.46011 9.96229,-9.96229 0,-5.50217 -4.46031,-9.96228 -9.96229,-9.96228 -5.50197,0 -9.96228,4.46011 -9.96228,9.96228 0,5.50218 4.46031,9.96229 9.96228,9.96229 z"
     fill="#1c274c"
     id="path2"
     style="stroke-width:9.96229;fill:#aa8800" /><path
     d="m 391.58405,182.69136 c 5.50217,0 9.96229,-4.46011 9.96229,-9.96229 0,-5.50217 -4.46012,-9.96228 -9.96229,-9.96228 -5.50217,0 -9.96229,4.46011 -9.96229,9.96228 0,5.50218 4.46012,9.96229 9.96229,9.96229 z"
     fill="#1c274c"
     id="path3"
     style="stroke-width:9.96229;fill:#aa8800" /><path
     d="m 441.3955,172.72907 c 0,5.50218 -4.46012,9.96229 -9.96229,9.96229 -5.50217,0 -9.96229,-4.46011 -9.96229,-9.96229 0,-5.50217 4.46012,-9.96228 9.96229,-9.96228 5.50217,0 9.96229,4.46011 9.96229,9.96228 z"
     fill="#1c274c"
     id="path4"
     style="stroke-width:9.96229;fill:#aa8800" /><path
     d="m 339.28203,93.03076 c 0,-28.885558 23.41646,-52.302018 52.30202,-52.302018 24.36079,0 44.84824,16.661131 50.65426,39.220935 1.0291,3.996273 5.10268,6.402066 9.09856,5.373559 3.99687,-1.028606 6.40176,-5.101987 5.37366,-9.09826 -7.46475,-29.001818 -33.78213,-50.439668 -65.12648,-50.439668 -37.13862,0 -67.24545,30.106835 -67.24545,67.245452 v 20.46852 c 4.34864,-0.32477 9.29123,-0.45528 14.94343,-0.50808 z"
     fill="#1c274c"
     id="path5"
     style="stroke-width:9.96229;fill:#4d4d4d" /></svg>
